<svg width="45" height="45" viewBox="0 0 45 45" fill="none" xmlns="http://www.w3.org/2000/svg">
<path d="M34.4271 32.5676L32.7685 29.4546V21.7668C32.7685 17.0145 29.5769 12.9939 25.2246 11.7349V7.89744C25.2246 6.29977 23.9249 5 22.3273 5C20.7296 5 19.4299 6.29977 19.4299 7.89744V11.735C15.0777 12.994 11.8859 17.0146 11.8859 21.7669V29.4546L10.2274 32.5676C9.90796 33.1671 9.92602 33.8726 10.2756 34.4551C10.6252 35.0374 11.2394 35.3851 11.9187 35.3851H18.5034C18.6155 37.3973 20.2875 39 22.3273 39C24.367 39 26.039 37.3973 26.1511 35.3851H32.7359C33.4151 35.3851 34.0293 35.0374 34.379 34.4551C34.7284 33.8726 34.7465 33.1671 34.4271 32.5676ZM20.9629 7.89744C20.9629 7.14505 21.5749 6.53305 22.3272 6.53305C23.0794 6.53305 23.6914 7.14505 23.6914 7.89744V11.4148C22.7858 11.296 21.8686 11.296 20.9629 11.4148V7.89744ZM13.4191 21.7668C13.4191 16.8549 17.4153 12.8586 22.3273 12.8586C27.2393 12.8586 31.2355 16.8549 31.2355 21.7668V28.8203H13.4191V21.7668ZM22.3273 37.4669C21.1332 37.4669 20.1495 36.5511 20.0406 35.3851H24.6141C24.5051 36.5511 23.5212 37.4669 22.3273 37.4669ZM33.0645 33.666C33.0309 33.722 32.9317 33.8521 32.7359 33.8521H11.9187C11.7229 33.8521 11.6236 33.722 11.5901 33.666C11.5565 33.6101 11.4884 33.4613 11.5805 33.2885L13.1443 30.3534H31.5104L33.0742 33.2885C33.1662 33.4613 33.098 33.6101 33.0645 33.666Z" fill="black"/>
<path d="M22.3272 14.9019C18.5419 14.9019 15.4623 17.9815 15.4623 21.7668C15.4623 22.1901 15.8055 22.5333 16.2288 22.5333C16.6521 22.5333 16.9953 22.1901 16.9953 21.7668C16.9953 18.8269 19.3872 16.4349 22.3272 16.4349C22.7506 16.4349 23.0938 16.0917 23.0938 15.6684C23.0938 15.245 22.7506 14.9019 22.3272 14.9019V14.9019Z" fill="black"/>
<circle cx="22.5" cy="22.5" r="21.5" stroke="#B7B7B7" stroke-width="2"/>
</svg>
